<svg id="Layer_1" data-name="Layer 1" xmlns="http://www.w3.org/2000/svg" viewBox="0 0 838.25 1067.82"><defs><style>.cls-1{fill:#6a4b35;}.cls-2{fill:#f4b85c;}.cls-3{fill:#ea6a78;}.cls-4{fill:#d94c52;}.cls-5{fill:#23af92;}</style></defs><path class="cls-1" d="M312.36,203.12s-72.3,265.34-64.6,565.52S572.28,920.42,572.28,920.42L474.6,203.12Z" transform="translate(-125.99 -12.18)"/><path class="cls-1" d="M789,219.3S777.94,460.2,892,709c109.32,238.51-319.71,45.57-319.71,45.57L607,203.12Z" transform="translate(-125.99 -12.18)"/><path class="cls-2" d="M665.33,722.89c-13.81-20.68-63.23-104-42.06-208.44H486.66s14,92.65,0,124.88c-8.39,19.3-29.63,55.85-45.33,82.13C233.32,758.35,126,894.91,126,1080H964.24C964.24,899.9,842.79,762.31,665.33,722.89Z" transform="translate(-125.99 -12.18)"/><path class="cls-3" d="M683.22,727.59,550,898.47,441.33,721.32A489.63,489.63,0,0,0,340,750.38v329.48H781.41V767.24A419.72,419.72,0,0,0,683.22,727.59Z" transform="translate(-125.99 -12.18)"/><path class="cls-4" d="M440.8,721.43c-42.35,7.57-80.27,19.45-114.23,34.84v323.59H547.5c.22-49.78.34-112.74.38-183.79Z" transform="translate(-125.99 -12.18)"/><path class="cls-5" d="M458.33,731.28A16.32,16.32,0,1,1,442,715,16.32,16.32,0,0,1,458.33,731.28Z" transform="translate(-125.99 -12.18)"/><path class="cls-5" d="M458.33,755.48A16.32,16.32,0,1,1,442,739.15,16.32,16.32,0,0,1,458.33,755.48Z" transform="translate(-125.99 -12.18)"/><path class="cls-5" d="M685.68,753.58a16.32,16.32,0,1,1-16.32-16.33A16.32,16.32,0,0,1,685.68,753.58Z" transform="translate(-125.99 -12.18)"/><path class="cls-5" d="M687.58,731.28A16.32,16.32,0,1,1,671.26,715,16.32,16.32,0,0,1,687.58,731.28Z" transform="translate(-125.99 -12.18)"/><path class="cls-5" d="M570,888.39a27.78,27.78,0,1,1-37.18-12.68A27.78,27.78,0,0,1,570,888.39Z" transform="translate(-125.99 -12.18)"/><path class="cls-5" d="M568.74,893.36A27.78,27.78,0,1,1,604,876,27.77,27.77,0,0,1,568.74,893.36Z" transform="translate(-125.99 -12.18)"/><path class="cls-5" d="M604.56,854.58a27.78,27.78,0,1,1,35.27-17.32A27.78,27.78,0,0,1,604.56,854.58Z" transform="translate(-125.99 -12.18)"/><path class="cls-5" d="M639.88,814.23a27.79,27.79,0,1,1,35.28-17.33A27.79,27.79,0,0,1,639.88,814.23Z" transform="translate(-125.99 -12.18)"/><path class="cls-5" d="M449.35,814.23a27.79,27.79,0,1,1,35.28-17.33A27.79,27.79,0,0,1,449.35,814.23Z" transform="translate(-125.99 -12.18)"/><path class="cls-5" d="M480.55,854.58a27.78,27.78,0,1,1,35.28-17.32A27.77,27.77,0,0,1,480.55,854.58Z" transform="translate(-125.99 -12.18)"/><path class="cls-5" d="M508.35,893.36A27.78,27.78,0,1,1,543.63,876,27.77,27.77,0,0,1,508.35,893.36Z" transform="translate(-125.99 -12.18)"/><path class="cls-5" d="M368.46,635c0,4.74,1.9,8.6,4.25,8.6h0c2.33,0,4.25-3.86,4.25-8.6V454.17c0-4.74-1.92-8.59-4.25-8.59h0c-2.35,0-4.25,3.85-4.25,8.59Z" transform="translate(-125.99 -12.18)"/><path class="cls-5" d="M395.78,629.38a23.07,23.07,0,1,1-23-23.08A23.06,23.06,0,0,1,395.78,629.38Z" transform="translate(-125.99 -12.18)"/><path class="cls-5" d="M706.38,635c0,4.74,1.9,8.6,4.26,8.6h0c2.32,0,4.25-3.86,4.25-8.6V454.17c0-4.74-1.93-8.59-4.25-8.59h0c-2.36,0-4.26,3.85-4.26,8.59Z" transform="translate(-125.99 -12.18)"/><path class="cls-5" d="M733.71,629.38a23.07,23.07,0,1,1-23.05-23.08A23.06,23.06,0,0,1,733.71,629.38Z" transform="translate(-125.99 -12.18)"/><path class="cls-2" d="M781.41,303.6c0,146.12-102.4,304.57-233.86,304.57S305.29,449.72,305.29,303.6,411.88,39,543.36,39,781.41,157.47,781.41,303.6Z" transform="translate(-125.99 -12.18)"/><path class="cls-1" d="M305.29,303.6S535.15,279.82,602.9,153.06c0,0,62.45,148.61,191.47,150.54,0,0,14-245.64-155.41-281.7s-313.15,26.68-332,215" transform="translate(-125.99 -12.18)"/></svg>