<svg id="Layer_1" data-name="Layer 1" xmlns="http://www.w3.org/2000/svg" viewBox="0 0 1057.2 982.78"><defs><style>.cls-1{fill:#f4b85c;}.cls-2{fill:#e9ecee;}.cls-3{fill:#d5d6d8;}.cls-4{fill:#c0321f;}.cls-5{fill:#5161a0;}.cls-6{fill:#ffcf00;}.cls-7{fill:#a7b4dc;}.cls-8{fill:#322f2c;}.cls-9{fill:#f4f7fa;}.cls-10{fill:#3c3c3b;}.cls-11{fill:#c6d0eb;opacity:0.67;}.cls-12{fill:#96765e;}</style></defs><path class="cls-1" d="M648.94,769.21c-12.25-18.36-56-92.2-37.26-184.73H490.59s12.4,82.13,0,110.66c-7.41,17.09-26.23,49.51-40.17,72.8C266.14,800.63,171,921.6,171,1085.62H913.79C913.79,926,806.17,804.12,648.94,769.21Z" transform="translate(-13.8 -102.83)"/><path class="cls-2" d="M768.15,632c-59.87,55.93-138.86,90.26-225.77,90.26s-166-34.39-225.92-90.43C116.59,703.79,13.8,870,13.8,1085.62H1071C1071,872.55,950.81,704.48,768.15,632Z" transform="translate(-13.8 -102.83)"/><path class="cls-3" d="M549.49,721.89c-2.39.05-4.71.35-7.11.35-87,0-166-34.39-225.92-90.43C116.59,703.79,13.8,870,13.8,1085.62H549.49Z" transform="translate(-13.8 -102.83)"/><path class="cls-1" d="M387.62,475.58" transform="translate(-13.8 -102.83)"/><path class="cls-4" d="M140.09,743A418.21,418.21,0,0,0,60.84,858.18L171,912.36l66.92-124.44Zm27.71,156.8L74,853.66a355.9,355.9,0,0,1,67.52-98.1l83.34,38.25Z" transform="translate(-13.8 -102.83)"/><circle class="cls-5" cx="793.58" cy="809.52" r="54.06"/><circle class="cls-6" cx="814.53" cy="798.31" r="11.21"/><path class="cls-6" d="M799.3,901.14a11.23,11.23,0,1,1-11.24-11.21A11.23,11.23,0,0,1,799.3,901.14Z" transform="translate(-13.8 -102.83)"/><path class="cls-6" d="M818.6,935.27a11.22,11.22,0,1,1-11.24-11.22A11.22,11.22,0,0,1,818.6,935.27Z" transform="translate(-13.8 -102.83)"/><path class="cls-5" d="M999.32,824a461.89,461.89,0,0,0-63.62-81.36l-72.59,61.53,69.63,85.72Z" transform="translate(-13.8 -102.83)"/><ellipse class="cls-7" cx="549.47" cy="440.7" rx="336.44" ry="336.46" transform="translate(88.45 882.05) rotate(-89.32)"/><path class="cls-8" d="M549.2,762.81a321,321,0,0,0,228.92-95.62c-38.85-40.35-116.89-85.26-228.5-85.26-108.75,0-200.27,36.31-228.8,85.86A321,321,0,0,0,549.2,762.81Z" transform="translate(-13.8 -102.83)"/><path class="cls-1" d="M753.33,443.51c0,129.5-90.72,269.89-207.24,269.89S331.47,573,331.47,443.51,425.91,169.73,542.4,169.73,753.33,314,753.33,443.51Z" transform="translate(-13.8 -102.83)"/><path class="cls-9" d="M726.19,619.58c-38.58,70.83-102.83,123.83-177.28,123.83-74.78,0-142.2-53.44-183-124.72-27.23,13.67-47.72,30.44-58.91,49.1,60.74,58.67,144.81,95,237.77,95,93.23,0,177.51-36.61,238.31-95.62C772.09,649.17,752.31,632.94,726.19,619.58Z" transform="translate(-13.8 -102.83)"/><path class="cls-10" d="M392.81,344.86s142.91,92,298.6-4.24c0,0-11.52,93.15,62.34,117.5,54.92-217.74-36-316.06-172.79-301-176,19.41-330.26-34.75-245.19,329.42C335.77,486.56,393.08,433.73,392.81,344.86Z" transform="translate(-13.8 -102.83)"/><path class="cls-11" d="M540.84,114.45c-178,0-322.28,144.28-322.28,322.26,0,5.92.58,11.7.88,17.55C278.53,365,566.6-19.15,861.15,471.57a326.2,326.2,0,0,0,2-34.86C863.11,258.73,718.8,114.45,540.84,114.45Z" transform="translate(-13.8 -102.83)"/><path class="cls-12" d="M549.47,102.83c-186.62,0-337.86,151.26-337.86,337.86S362.85,778.57,549.47,778.57,887.36,627.3,887.36,440.69,736.08,102.83,549.47,102.83Zm0,660c-177.9,0-322.12-144.21-322.12-322.12s144.22-322.1,322.12-322.1,322.11,144.22,322.11,322.1S727.36,762.81,549.47,762.81Z" transform="translate(-13.8 -102.83)"/></svg>