<svg id="Layer_1" data-name="Layer 1" xmlns="http://www.w3.org/2000/svg" viewBox="0 0 845.25 1076.73"><defs><style>.cls-1{fill:#f4b85c;}.cls-2{fill:#dbc797;}.cls-3{fill:#f5e5ba;}.cls-4{fill:#879291;}.cls-5{fill:#d94c52;}.cls-6{fill:#f3f7f8;}.cls-7{fill:#dbebf7;opacity:0.45;}.cls-8{fill:#dc7422;}.cls-9{fill:#ea6a78;}</style></defs><path class="cls-1" d="M672,719.91C658.11,699.05,608.27,615,629.63,509.73H491.88s14.08,93.42,0,125.92C483.41,655.11,462,692,446.17,718.46c-209.75,37.2-318,174.9-318,361.54H973.44C973.44,898.4,851,759.65,672,719.91Z" transform="translate(-128.2 -3.27)"/><path class="cls-2" d="M678.76,721.53c-106.71,90-190.25,33.52-230.06-7.49l-2.53,4.29c-209.75,37.22-318,174.92-318,361.53H973.44C973.44,900.59,854,763.27,678.76,721.53Z" transform="translate(-128.2 -3.27)"/><path class="cls-3" d="M908.64,1079.86h64.8c0-179.27-119.46-316.59-294.68-358.33-106.71,90-190.25,33.52-230.06-7.49l-2.53,4.29c-52.45,9.3-98.54,24.89-138.2,45.95Z" transform="translate(-128.2 -3.27)"/><path class="cls-4" d="M315.78,195.8s-73,153.5-65.21,327.16,327.64,87.8,327.64,87.8l-98.61-415Z" transform="translate(-128.2 -3.27)"/><path class="cls-4" d="M796.56,206.07S850,349.3,842.24,523s-327.63,87.8-327.63,87.8l98.56-415Z" transform="translate(-128.2 -3.27)"/><path class="cls-1" d="M789.09,297.11c0,147.34-103.26,307.12-235.82,307.12S309,444.45,309,297.11,416.47,30.33,549.05,30.33,789.09,149.77,789.09,297.11Z" transform="translate(-128.2 -3.27)"/><path class="cls-5" d="M293.37,1079.86H825.29c-7.31-72.9-5-173.5,42.43-255.61-39.07-38.64-87.82-68.75-143.57-88.66-53.58,50.45-191.51,147.25-308.4-11C356.27,734,277.25,777,240.8,810.39,259.85,849,300.5,922.37,293.37,1079.86Z" transform="translate(-128.2 -3.27)"/><path class="cls-4" d="M309,297.11s231.77-24,300.1-151.78c0,0,63,149.84,193.07,151.78,0,0,14.08-247.69-156.71-284S329.68,40,310.7,229.83" transform="translate(-128.2 -3.27)"/><path class="cls-6" d="M574.82,862.73a16.6,16.6,0,1,1-16.58-16.61A16.6,16.6,0,0,1,574.82,862.73Z" transform="translate(-128.2 -3.27)"/><path class="cls-6" d="M574.82,931.21a16.6,16.6,0,1,1-16.58-16.61A16.6,16.6,0,0,1,574.82,931.21Z" transform="translate(-128.2 -3.27)"/><path class="cls-6" d="M574.82,995.29a16.6,16.6,0,1,1-16.58-16.61A16.58,16.58,0,0,1,574.82,995.29Z" transform="translate(-128.2 -3.27)"/><path class="cls-6" d="M574.82,1053.41a16.6,16.6,0,1,1-16.58-16.61A16.6,16.6,0,0,1,574.82,1053.41Z" transform="translate(-128.2 -3.27)"/><path class="cls-7" d="M393.33,310.43A79.86,79.86,0,1,0,520.5,405.09Z" transform="translate(-128.2 -3.27)"/><path class="cls-7" d="M597.24,310.43a79.85,79.85,0,1,0,127.14,94.66Z" transform="translate(-128.2 -3.27)"/><path class="cls-8" d="M450.1,280.32a84.07,84.07,0,1,0,84,84.06A84,84,0,0,0,450.1,280.32Zm0,161.36a77.3,77.3,0,1,1,77.26-77.3A77.31,77.31,0,0,1,450.1,441.68Z" transform="translate(-128.2 -3.27)"/><path class="cls-8" d="M652.87,280.32A84.07,84.07,0,1,0,737,364.38,84.07,84.07,0,0,0,652.87,280.32Zm0,161.36a77.3,77.3,0,1,1,77.31-77.3A77.29,77.29,0,0,1,652.87,441.68Z" transform="translate(-128.2 -3.27)"/><path class="cls-8" d="M525.44,360s27.67-17.13,52,0l-7.88,5.44s-12.14-16.95-36.29,0Z" transform="translate(-128.2 -3.27)"/><rect class="cls-8" x="230.49" y="349.14" width="11.98" height="25.55"/><rect class="cls-8" x="602.77" y="349.14" width="11.99" height="25.55"/><path class="cls-8" d="M784.32,356.54c-24.26-3-41.37-4.13-41.37-4.13v26c7.36-6.16,21.78-9.09,39.5-9.57C783.17,364.6,783.83,360.43,784.32,356.54Z" transform="translate(-128.2 -3.27)"/><path class="cls-8" d="M313.25,356.54c26.66-3,45.44-4.13,45.44-4.13v26c-8.1-6.16-23.93-9.09-43.36-9.57C314.52,364.6,313.82,360.43,313.25,356.54Z" transform="translate(-128.2 -3.27)"/><path class="cls-9" d="M822.58,1034.66c-1.83-66.09,6.89-144.16,45.14-210.41-39.07-38.64-87.82-68.75-143.57-88.66-53.58,50.45-191.51,147.25-308.4-11-33.32,5.31-72.59,21.2-107.26,39.93Z" transform="translate(-128.2 -3.27)"/></svg>