<svg id="Layer_1" data-name="Layer 1" xmlns="http://www.w3.org/2000/svg" viewBox="0 0 729.14 1063.18"><defs><style>.cls-1{fill:#f4b85c;}.cls-2{fill:#d94c52;}.cls-3,.cls-4{fill:#ea6a78;}.cls-4,.cls-9{fill-rule:evenodd;}.cls-5,.cls-9{fill:#59402d;}.cls-6{fill:#d55698;}.cls-7{fill:#e87fb0;}.cls-8{fill:#39485d;}.cls-10{fill:#323e50;}</style></defs><path class="cls-1" d="M663.61,769.41c-12-18-55-90.5-36.58-181.34H508.18s12.18,80.62,0,108.63c-7.29,16.78-25.76,48.59-39.43,71.46C287.85,800.24,194.48,919,194.48,1080H923.61C923.61,923.35,818,803.68,663.61,769.41Z" transform="translate(-194.48 -16.82)"/><path class="cls-2" d="M680.29,773.54l-.15-.2a1,1,0,0,0-.17.1l-.48-.15-.53.76c-104.33,72.41-230,1.78-234-.51l-.21-.25c-165,38.08-250.24,153.06-250.24,306.71H923.62C923.62,931.57,821.58,814.39,680.29,773.54Z" transform="translate(-194.48 -16.82)"/><path class="cls-3" d="M559.05,806.22c-62.13-3.49-111.62-31.26-114.11-32.68l-.21-.25c-165,38.08-250.24,153.06-250.24,306.71H559.05Z" transform="translate(-194.48 -16.82)"/><path class="cls-1" d="M766.1,421.2c0,127.13-89.06,264.94-203.43,264.94S352,548.33,352,421.2s92.71-268.74,207.07-268.74S766.1,294.12,766.1,421.2Z" transform="translate(-194.48 -16.82)"/><path class="cls-1" d="M407.1,497.7" transform="translate(-194.48 -16.82)"/><path class="cls-4" d="M618.67,587.24c0,2.56-3.46,4.63-7.74,4.63H523.11c-4.27,0-7.74-2.07-7.74-4.63h0c0-2.57,3.47-4.64,7.74-4.64h87.82c4.28,0,7.74,2.07,7.74,4.64Z" transform="translate(-194.48 -16.82)"/><path class="cls-5" d="M817.7,250.37c-13.23-34.89-59.48-109.62-140.42-127.45-30.82-6.8-73.38-10.47-117.28-10.69v0l-1.21,0-1.23,0v0c-43.88.22-86.44,3.89-117.27,10.69-81,17.83-127.2,92.56-140.42,127.45S353.22,410.1,353.22,410.1c41.29-6.6,70.19-136.71,70.19-136.71,39.91,27.26,88.39,36,134.15,36.15v.06c.41,0,.81,0,1.23,0l1.21,0v-.06c45.76-.18,94.25-8.89,134.15-36.15,0,0,28.92,130.11,70.2,136.71C764.35,410.1,830.92,285.27,817.7,250.37Z" transform="translate(-194.48 -16.82)"/><path class="cls-6" d="M674.23,49.79c-2.91-.65-5.68-1.38-8.52-2.06l3.4-11.19a15.28,15.28,0,0,0-29.25-8.88l-3.7,12.2C562.92,18.71,508.82-4.5,407.1,53c0,0-217,127.09-11.15,162.47S823.83,386,857.61,305.55,796.49,77.13,674.23,49.79Z" transform="translate(-194.48 -16.82)"/><path class="cls-7" d="M559.05,19.7C516.16,12.63,471,16.86,407.1,53c0,0-217,127.09-11.15,162.47,54.52,9.37,110.12,25.74,163.1,43.23Z" transform="translate(-194.48 -16.82)"/><path class="cls-8" d="M559.05,787.17c-28.76-4.69-38.06-23.62-46.25-37.12-17-28,4.78-74.53,4.78-74.53C332.73,723.11,311.23,832,311.23,832l61.6-35.22c33.61,114.8,131,153.95,186.22,152.67Z" transform="translate(-194.48 -16.82)"/><path class="cls-5" d="M576.69,674.88a10.22,10.22,0,0,1-10.22,10.22h0a10.21,10.21,0,0,1-10.22-10.22V623.4a10.21,10.21,0,0,1,10.22-10.22h0a10.22,10.22,0,0,1,10.22,10.22Z" transform="translate(-194.48 -16.82)"/><path class="cls-9" d="M564.46,557.51s-26.06,25.22-72.34,12.79c0,0,18.24,13.63,68.52,3.44Z" transform="translate(-194.48 -16.82)"/><path class="cls-9" d="M566.47,557.51s26.06,25.22,72.34,12.79c0,0-18.24,13.63-68.51,3.44Z" transform="translate(-194.48 -16.82)"/><path class="cls-10" d="M624.13,672.68s13,43,7,69.59c-3.91,17.37-27.35,46-57.9,46-40.22,0-51-22.71-60.45-38.23-17-28,4.78-74.53,4.78-74.53C332.73,723.11,311.23,832,311.23,832l61.6-35.22c-2.12-7.24,45.78,164.52,194.14,152.34,53.76,4.41,279.09-89,199.13-140.65S624.13,672.68,624.13,672.68Z" transform="translate(-194.48 -16.82)"/></svg>